<svg id="Camada_1" data-name="Camada 1" xmlns="http://www.w3.org/2000/svg" xmlns:xlink="http://www.w3.org/1999/xlink" viewBox="0 0 752.07 340.93"><defs><style>.cls-1{fill:none;}.cls-2{clip-path:url(#clip-path);}.cls-3{fill:url(#Gradiente_sem_nome_26);}.cls-4{fill:#ed1c24;}.cls-5{fill:url(#Gradiente_sem_nome_26-2);}.cls-6{fill:url(#Gradiente_sem_nome_26-3);}</style><clipPath id="clip-path" transform="translate(-150.16 -356.83)"><path class="cls-1" d="M559.29,466.84l-1,4.14a3.36,3.36,0,0,1-1.24,2,16.62,16.62,0,0,1-2.26,1.24,33.09,33.09,0,0,0-3.17,1.75,19.36,19.36,0,0,0-3.9,3.4l-7.08,8q4.5,5.06,9.56,5.05a8.55,8.55,0,0,0,2.48-.36,9.06,9.06,0,0,0,2.57-1.38c1,1,1.75,1.79,2.12,2.25a2.23,2.23,0,0,1,.55,1.42c0,.62-.52,1.43-1.56,2.44a19.91,19.91,0,0,1-4.14,2.94,32,32,0,0,1-5.93,2.48,22.81,22.81,0,0,1-6.94,1.06,22.42,22.42,0,0,1-5.24-.55,20.86,20.86,0,0,1-7.12-3.13q-1.34-.92-2.25-1.65a37.75,37.75,0,0,1-10.16,4.36,35.87,35.87,0,0,1-8,1,28.61,28.61,0,0,1-10-1.56,21.08,21.08,0,0,1-6.94-4.09,15.75,15.75,0,0,1-4-5.75,17.15,17.15,0,0,1-1.29-6.43,14.78,14.78,0,0,1,2.16-8.32,18.34,18.34,0,0,1,5.47-5.38,29.59,29.59,0,0,1,7.36-3.35c2.69-.83,5.3-1.58,7.81-2.26a54.7,54.7,0,0,1-1.52-5.28,20.94,20.94,0,0,1-.5-4.64,18.13,18.13,0,0,1,1.56-7.4,18.35,18.35,0,0,1,4.55-6.25,22.42,22.42,0,0,1,7.22-4.32A26.51,26.51,0,0,1,528,436.6a21.86,21.86,0,0,1,8.22,1.33,15.71,15.71,0,0,1,5.2,3.26,11.55,11.55,0,0,1,2.75,4.23,12.6,12.6,0,0,1,.83,4.23c0,.37,0,1-.14,1.79a10.71,10.71,0,0,1-.73,2.76,17.38,17.38,0,0,1-1.7,3.17,14.85,14.85,0,0,1-3,3.22c-.55.37-1.09.73-1.61,1.1a16.39,16.39,0,0,1-1.93,1.15c-.76.4-1.67.86-2.71,1.38s-2.33,1.15-3.86,1.88c.19.62.46,1.51.83,2.67s.83,2.47,1.38,3.91,1.21,2.94,2,4.5a40.54,40.54,0,0,0,2.62,4.55,8.4,8.4,0,0,0,2.44-3.22,7.94,7.94,0,0,0,.78-2.66,2.1,2.1,0,0,0-.6-1.7,9,9,0,0,0-1.28-.92,4.32,4.32,0,0,1-1.11-.92,2.17,2.17,0,0,1-.13-1.79l.92-3.68Zm-49.73,7.08-1.75.87a4.9,4.9,0,0,0-1.47,1.15,5.25,5.25,0,0,0-1,1.93,10.7,10.7,0,0,0-.37,3,13.68,13.68,0,0,0,.78,4.6,12.63,12.63,0,0,0,2.21,3.91,11.19,11.19,0,0,0,3.45,2.75,9.3,9.3,0,0,0,4.41,1.06,7.21,7.21,0,0,0,1.84-.18,6,6,0,0,0,1.29-.56c-1.05-1.4-1.92-2.68-2.62-3.81a40.8,40.8,0,0,1-2-3.68q-1-2-2.06-4.55C511.49,478.73,510.6,476.55,509.56,473.92Zm17.56-15c.42-.24,1-.61,1.79-1.1a11.52,11.52,0,0,0,4-4.6,8.1,8.1,0,0,0,.78-3.67,9.82,9.82,0,0,0-.09-1.1,5.56,5.56,0,0,0-.41-1.48,3.22,3.22,0,0,0-1.06-1.28,3.11,3.11,0,0,0-1.93-.55,3.51,3.51,0,0,0-2.34.73,5.45,5.45,0,0,0-1.38,1.7,6,6,0,0,0-.64,2,12.1,12.1,0,0,0-.14,1.61A21.76,21.76,0,0,0,527.12,458.93Z"/></clipPath><linearGradient id="Gradiente_sem_nome_26" x1="269.84" y1="111.67" x2="486.84" y2="111.67" gradientUnits="userSpaceOnUse"><stop offset="0" stop-color="#00a738"/><stop offset="0.2" stop-color="#00a236"/><stop offset="0.43" stop-color="#009431"/><stop offset="0.67" stop-color="#007e29"/><stop offset="0.92" stop-color="#005e1d"/><stop offset="1" stop-color="#005219"/></linearGradient><linearGradient id="Gradiente_sem_nome_26-2" x1="150.16" y1="472.58" x2="419.67" y2="472.58" xlink:href="#Gradiente_sem_nome_26"/><linearGradient id="Gradiente_sem_nome_26-3" x1="632.62" y1="464.2" x2="902.23" y2="464.2" xlink:href="#Gradiente_sem_nome_26"/></defs><title>jr-logo</title><g class="cls-2"><rect class="cls-3" x="269.84" y="26.17" width="217" height="171"/></g><path class="cls-4" d="M530.35,370.35,433,378.59l16.07,16.18c-7.81,6.34-32,27.68-36.58,61.94-5.57,41.84,20.43,85.84,65.57,107.8l20.55-48c-21.9-9.14-35.86-29.11-35.22-49.77.55-17.84,14.09-31.91,17.52-35.32,6.62,4.4,10.1,9.3,16.22,14Z" transform="translate(-150.16 -356.83)"/><path class="cls-4" d="M504.9,519.08a92.94,92.94,0,0,0,12.84.9,94.29,94.29,0,0,0,12.28-.83q6.42,24.4,12.86,48.81a107.46,107.46,0,0,1-54.23-.18Z" transform="translate(-150.16 -356.83)"/><path class="cls-4" d="M537.3,517a56.68,56.68,0,0,0,8.86-3.68,55.83,55.83,0,0,0,9-5.82l40.4,37.23a109.29,109.29,0,0,1-42.3,20.69C547.23,549.27,543.33,533.23,537.3,517Z" transform="translate(-150.16 -356.83)"/><path class="cls-4" d="M559.74,503.56l42.69,35.24a69.19,69.19,0,0,0,29-34.26l-62-17.9a39,39,0,0,1-2.45,6.67A38.3,38.3,0,0,1,559.74,503.56Z" transform="translate(-150.16 -356.83)"/><path class="cls-4" d="M569,463.36a35.45,35.45,0,0,1,1,17.26l67,8.94a85.25,85.25,0,0,0,1.42-34.25Z" transform="translate(-150.16 -356.83)"/><path class="cls-4" d="M567.16,458.93l69.67-12.33a75.31,75.31,0,0,0-9.2-22.15l-64.15,25.62Q565.33,454.5,567.16,458.93Z" transform="translate(-150.16 -356.83)"/><path class="cls-4" d="M562.16,447.26l58.42-33.88a23.05,23.05,0,0,0-2.6-4.65,23.88,23.88,0,0,0-8.11-7l-52.6,38,2.45,3.79Z" transform="translate(-150.16 -356.83)"/><path class="cls-5" d="M261.74,356.83l157.93.93c-13,46.27-22.09,82.37-27.91,106.42-8.2,33.91-13.49,58.67-34.59,82.31a123.7,123.7,0,0,1-31,25c-23.92,13.49-45.79,14.92-63.82,16.1-15.36,1-38.21,2.27-65-7.16-15.53-5.46-35.39-12.44-43.54-31-1.46-3.34-6.22-14.64-1.79-27.44.67-1.91,6-16.5,21.47-21.47,2.23-.71,17.21-5.25,28.63,4.18,9.73,8,12.88,22.91,7.16,36.38.93,3.44,3.32,10.14,9.54,14.31,10.13,6.8,23.2,2.08,25.65,1.2,16.37-5.91,24.52-26.2,41.15-95.43,4.46-18.54,9.57-40.83,14.91-66.2a31.46,31.46,0,0,0-1.79-13.72C291,360.61,263.2,357,261.74,356.83Z" transform="translate(-150.16 -356.83)"/><path class="cls-6" d="M685.7,357.14l168.78.6c4.2.11,20.34,1,33.4,13.72a48,48,0,0,1,12.53,20.87c4.87,16.88-1.34,31.22-3.58,36.38-11.47,26.47-38.56,35.43-43.54,37a62.61,62.61,0,0,1,8.35,16.7,65.58,65.58,0,0,1,3,17.3c1.7,28.28-3.46,37.47,2.39,53.08,2,5.21,4.44,9.29,8.35,12.52a27.65,27.65,0,0,0,14.91,6H782.32a25.49,25.49,0,0,1-3.58-4.18,29.84,29.84,0,0,1-3.58-7.75c-2.47-8.74.86-30.21-.6-49.5-.61-8.16-2-14.64-6.56-20.28a27.73,27.73,0,0,0-7.75-6.56H747.13l-23.26,88.27H632.62Zm91.85,96.62A40.31,40.31,0,0,0,788.88,449c13.88-8.58,22.85-26.19,20.28-42.34-.54-3.34-1.79-11.19-8.35-17.3a26.26,26.26,0,0,0-10.74-6h-17.3q-8.94,35.17-17.89,70.37Z" transform="translate(-150.16 -356.83)"/><path class="cls-4" d="M157.13,612.73q2.69-.36,8.23-1a127.17,127.17,0,0,1,14-.64,68.53,68.53,0,0,1,12.5,1.17,32,32,0,0,1,11.38,4.38,23.8,23.8,0,0,1,8.24,9.05q3.15,5.85,3.15,15.19a33.21,33.21,0,0,1-2.51,13.78,23.19,23.19,0,0,1-6.66,8.76,25.58,25.58,0,0,1-9.46,4.67,42.8,42.8,0,0,1-10.92,1.4c-1.48,0-3-.06-4.5-.17a23.51,23.51,0,0,1-3.21-.41v27.21q-3,.58-5.49.82c-1.63.15-3.15.23-4.55.23a61.4,61.4,0,0,1-10.16-1Zm20.2,39.48a8,8,0,0,0,2,.35c.93.07,1.9.11,2.92.11a11.54,11.54,0,0,0,8.17-2.92q3.17-2.91,3.16-8.87a15.24,15.24,0,0,0-1-5.9,9.78,9.78,0,0,0-2.74-3.86,10.17,10.17,0,0,0-4.09-2,20.11,20.11,0,0,0-4.9-.58H179.2a16.75,16.75,0,0,0-1.87.11Z" transform="translate(-150.16 -356.83)"/><path class="cls-4" d="M231.06,696.24c-1.79.31-3.43.54-4.91.7a42.88,42.88,0,0,1-4.32.23,44.74,44.74,0,0,1-4.84-.29q-2.75-.28-6.14-.87L237,612.61c2-.23,3.91-.43,5.66-.58s3.52-.24,5.32-.24c1.47,0,3.09.08,4.84.24s3.76.35,6,.58l25.81,83.51a76.16,76.16,0,0,1-11.68,1c-1.56,0-3.11-.08-4.67-.23s-3.23-.39-5-.7L258.86,680a52.51,52.51,0,0,1-6.25,1.41,38.21,38.21,0,0,1-5.9.46,37,37,0,0,1-5.49-.41,51.24,51.24,0,0,1-5.84-1.22Zm16.35-61.67-7.82,30c1.32.39,2.57.7,3.73.93a18.75,18.75,0,0,0,3.62.35,26.8,26.8,0,0,0,3.92-.29,33.41,33.41,0,0,0,4-.88Z" transform="translate(-150.16 -356.83)"/><path class="cls-4" d="M292.26,612.73c1.71-.31,3.27-.55,4.68-.7a35.94,35.94,0,0,1,4.08-.24,35.37,35.37,0,0,1,4.38.29c1.52.2,2.82.41,3.92.65l27.09,45.78V612.73c2-.31,3.86-.55,5.49-.7s3.12-.24,4.44-.24a39.34,39.34,0,0,1,4.21.24c1.47.15,3,.39,4.67.7l-.12,83.39a25.84,25.84,0,0,1-3.39.7,33.4,33.4,0,0,1-10-.06c-1.56-.27-2.69-.48-3.39-.64l-27.21-45.55v45.55a47.08,47.08,0,0,1-9.35,1,48.84,48.84,0,0,1-9.46-1Z" transform="translate(-150.16 -356.83)"/><path class="cls-4" d="M369.23,612.49h49.29c.31,1.72.55,3.31.7,4.79a39.2,39.2,0,0,1,.24,4.21,54.3,54.3,0,0,1-.94,9.22H389.91V645h22.54a40.57,40.57,0,0,1,0,18.34H389.91v32.82a63.72,63.72,0,0,1-10.28,1,62.53,62.53,0,0,1-10.4-1Z" transform="translate(-150.16 -356.83)"/><path class="cls-4" d="M428.8,612.73c2.1-.31,4-.55,5.72-.7s3.23-.24,4.56-.24,3,.08,4.73.24,3.64.39,5.66.7v65.4h27a45.52,45.52,0,0,1,.75,5.09c.12,1.44.18,2.74.18,3.91,0,1.32-.06,2.7-.18,4.15a49.4,49.4,0,0,1-.75,5.19H428.8Z" transform="translate(-150.16 -356.83)"/><path class="cls-4" d="M530.42,652.67a44.79,44.79,0,0,1-1,9.11H506.82v16.59h29.32a42.8,42.8,0,0,1,1.05,8.88,44.13,44.13,0,0,1-1.05,9.22h-50v-84h49.29c.31,1.72.54,3.31.7,4.79a41.84,41.84,0,0,1,.23,4.21,55.21,55.21,0,0,1-.93,9.22H506.82v12.85h22.55A46.22,46.22,0,0,1,530.42,652.67Z" transform="translate(-150.16 -356.83)"/><path class="cls-4" d="M563,630.71H543.5a45.25,45.25,0,0,1-1-9.22,45.79,45.79,0,0,1,1-9h59.68c.31,1.72.55,3.31.7,4.79a39.2,39.2,0,0,1,.24,4.21,55.34,55.34,0,0,1-.94,9.22h-19.5v65.41a63.72,63.72,0,0,1-10.28,1,62.53,62.53,0,0,1-10.4-1Z" transform="translate(-150.16 -356.83)"/><path class="cls-4" d="M616.15,696.24c-1.79.31-3.43.54-4.91.7a42.88,42.88,0,0,1-4.32.23,45.05,45.05,0,0,1-4.85-.29q-2.75-.28-6.13-.87l26.16-83.4c2-.23,3.92-.43,5.67-.58s3.52-.24,5.31-.24c1.48,0,3.1.08,4.85.24s3.76.35,6,.58l25.81,83.51a76.16,76.16,0,0,1-11.68,1c-1.56,0-3.12-.08-4.67-.23s-3.24-.39-5-.7L644,680a53,53,0,0,1-6.25,1.41,38.31,38.31,0,0,1-5.9.46,37,37,0,0,1-5.49-.41,50.8,50.8,0,0,1-5.84-1.22Zm16.35-61.67-7.83,30c1.33.39,2.57.7,3.74.93a18.75,18.75,0,0,0,3.62.35,26.8,26.8,0,0,0,3.92-.29,33.27,33.27,0,0,0,4-.88Z" transform="translate(-150.16 -356.83)"/><path class="cls-4" d="M718.11,651c2.11-.31,4-.55,5.61-.7s3.15-.24,4.56-.24,2.92.08,4.78.24,3.7.39,5.49.7v42.51a58.86,58.86,0,0,1-13.6,3.39,98.65,98.65,0,0,1-11.51.82,46.48,46.48,0,0,1-18-3.21,35.71,35.71,0,0,1-12.91-8.94,36.77,36.77,0,0,1-7.77-13.67,55.9,55.9,0,0,1-2.57-17.28,54.25,54.25,0,0,1,2.69-17.35,40.45,40.45,0,0,1,7.77-13.84,34.93,34.93,0,0,1,12.55-9.11,41.86,41.86,0,0,1,16.94-3.27,67.74,67.74,0,0,1,10.68.82A48.87,48.87,0,0,1,734,615.3a35,35,0,0,1-1.75,9.34,54.7,54.7,0,0,1-3.16,7.71c-1.55-.54-3-1-4.26-1.4s-2.51-.7-3.68-.94-2.34-.41-3.5-.52a36.77,36.77,0,0,0-3.74-.18q-9.46,0-14.6,6.37t-5.14,19q0,12.5,5,18.63t14.95,6.13a20.57,20.57,0,0,0,4-.35Z" transform="translate(-150.16 -356.83)"/><path class="cls-4" d="M795.67,652.67a44.79,44.79,0,0,1-1,9.11H772.08v16.59h29.31a42.8,42.8,0,0,1,1.05,8.88,44.13,44.13,0,0,1-1.05,9.22h-50v-84h49.29c.31,1.72.55,3.31.7,4.79a39.2,39.2,0,0,1,.24,4.21,55.34,55.34,0,0,1-.94,9.22H772.08v12.85h22.54A46.22,46.22,0,0,1,795.67,652.67Z" transform="translate(-150.16 -356.83)"/><path class="cls-4" d="M815.41,612.73c1.63-.24,3.4-.45,5.31-.65s3.68-.29,5.32-.29a49.62,49.62,0,0,1,5.08.29c1.83.2,3.52.41,5.08.65l16.58,43.45L870,612.73c1.56-.24,3.14-.45,4.73-.65a40.15,40.15,0,0,1,4.73-.29,45.75,45.75,0,0,1,5,.29c1.71.2,3.38.41,5,.65l4,83.39c-1.25.24-2.63.47-4.15.7a40.2,40.2,0,0,1-6,.35,53.77,53.77,0,0,1-9.7-1l-1.63-48.35-12.85,31.88c-1.4.24-2.8.43-4.2.59a36.58,36.58,0,0,1-3.86.23c-1.17,0-2.37-.06-3.62-.17a27.66,27.66,0,0,1-3.85-.65l-11.45-31.42-1.28,47.89a44.72,44.72,0,0,1-9.35,1,50,50,0,0,1-9.46-1Z" transform="translate(-150.16 -356.83)"/></svg>